<svg width="31" height="31" viewBox="0 0 31 31" fill="none" xmlns="http://www.w3.org/2000/svg">
<path d="M15.4353 23.25C15.8874 23.25 16.2698 23.0937 16.5823 22.7811C16.8949 22.4685 17.0508 22.0866 17.0499 21.6354C17.0491 21.1842 16.8932 20.8018 16.5823 20.4884C16.2715 20.175 15.8891 20.0191 15.4353 20.0208C14.9815 20.0225 14.5996 20.1788 14.2896 20.4897C13.9796 20.8006 13.8233 21.1825 13.8208 21.6354C13.8182 22.0883 13.9745 22.4707 14.2896 22.7824C14.6048 23.0941 14.9867 23.25 15.4353 23.25ZM14.2728 18.2771H16.6624C16.6624 17.5667 16.7434 17.0069 16.9053 16.5979C17.0671 16.1889 17.5244 15.6292 18.277 14.9187C18.8367 14.359 19.278 13.826 19.601 13.3197C19.9239 12.8133 20.0853 12.2054 20.0853 11.4958C20.0853 10.2903 19.644 9.36457 18.7614 8.71874C17.8787 8.0729 16.8346 7.74999 15.6291 7.74999C14.402 7.74999 13.4066 8.0729 12.6428 8.71874C11.8789 9.36457 11.3459 10.1396 11.0437 11.0437L13.1749 11.8833C13.2826 11.4958 13.525 11.076 13.9021 10.6239C14.2793 10.1719 14.8549 9.94582 15.6291 9.94582C16.318 9.94582 16.8346 10.1344 17.1791 10.5116C17.5235 10.8887 17.6958 11.3029 17.6958 11.7542C17.6958 12.1847 17.5666 12.5886 17.3083 12.9657C17.0499 13.3429 16.727 13.6925 16.3395 14.0146C15.3923 14.8542 14.811 15.4892 14.5958 15.9198C14.3805 16.3503 14.2728 17.1361 14.2728 18.2771ZM15.4999 28.4167C13.7131 28.4167 12.0339 28.0778 10.4624 27.4001C8.89089 26.7224 7.52388 25.8019 6.36138 24.6385C5.19888 23.4752 4.27878 22.1082 3.60109 20.5375C2.92339 18.9668 2.58411 17.2877 2.58325 15.5C2.58239 13.7123 2.92167 12.0332 3.60109 10.4625C4.2805 8.89182 5.2006 7.52481 6.36138 6.36144C7.52216 5.19808 8.88917 4.27799 10.4624 3.60115C12.0357 2.92432 13.7148 2.58504 15.4999 2.58332C17.285 2.5816 18.9642 2.92088 20.5374 3.60115C22.1107 4.28143 23.4777 5.20153 24.6385 6.36144C25.7992 7.52136 26.7198 8.88838 27.4 10.4625C28.0803 12.0366 28.4192 13.7158 28.4166 15.5C28.414 17.2842 28.0747 18.9634 27.3988 20.5375C26.7228 22.1116 25.8027 23.4786 24.6385 24.6385C23.4742 25.7984 22.1072 26.719 20.5374 27.4001C18.9676 28.0813 17.2884 28.4201 15.4999 28.4167Z" fill="black"/>
</svg>
