<svg width="18" height="18" viewBox="0 0 18 18" fill="none" xmlns="http://www.w3.org/2000/svg">
<path d="M3.27273 9L4.90909 5.4V4.5H2.45455V5.4H4.09091L2.45455 9M6.54545 9L8.18182 5.4V4.5H5.72727V5.4H7.36364L5.72727 9M9.81818 9L11.4545 5.4V4.5H9V5.4H10.6364L9 9M16.3636 0C15.4636 0 14.7273 0.81 14.7273 1.8C14.7273 2.43 15.0545 3.06 15.5455 3.33V13.5H13.0909V11.7C13.5818 11.7 13.9091 11.34 13.9091 10.8V2.7C13.9091 2.16 13.5818 1.8 13.0909 1.8H9.98182C9.32727 0.72 8.18182 0 6.95455 0C5.72727 0 4.58182 0.72 3.92727 1.8H0.818182C0.327273 1.8 0 2.16 0 2.7V10.8C0 11.34 0.327273 11.7 0.818182 11.7V18H13.0909V15.3H15.5455C16.4455 15.3 17.1818 14.49 17.1818 13.5V3.33C17.6727 3.06 18 2.43 18 1.8C18 0.81 17.2636 0 16.3636 0ZM1.63636 3.6H12.2727V9.9H1.63636V3.6ZM11.4545 16.2H2.45455V11.7H11.4545V16.2ZM9.81818 15.3H4.09091V13.5H9.81818V15.3Z" fill="white"/>
</svg>
