<svg width="16" height="16" viewBox="0 0 16 16" fill="none" xmlns="http://www.w3.org/2000/svg">
<path d="M3.99998 9.33333H9.33331V7.99999H3.99998V9.33333ZM3.99998 7.33333H12V5.99999H3.99998V7.33333ZM3.99998 5.33333H12V3.99999H3.99998V5.33333ZM1.33331 14.6667V2.66666C1.33331 2.29999 1.46398 1.98622 1.72531 1.72533C1.98665 1.46444 2.30042 1.33377 2.66665 1.33333H13.3333C13.7 1.33333 14.014 1.46399 14.2753 1.72533C14.5366 1.98666 14.6671 2.30044 14.6666 2.66666V10.6667C14.6666 11.0333 14.5362 11.3473 14.2753 11.6087C14.0144 11.87 13.7004 12.0004 13.3333 12H3.99998L1.33331 14.6667ZM3.43331 10.6667H13.3333V2.66666H2.66665V11.4167L3.43331 10.6667Z" fill="#CECECE"/>
</svg>
