<svg width="16" height="16" viewBox="0 0 16 16" fill="none" xmlns="http://www.w3.org/2000/svg">
<path d="M12.222 1.33334C13.5286 1.33334 14.5953 2.35801 14.6633 3.64801L14.6666 3.77801V12.222C14.6666 13.5287 13.642 14.5953 12.352 14.6633L12.222 14.6667H3.77798C3.1521 14.6667 2.55004 14.4267 2.09585 13.9961C1.64166 13.5654 1.36993 12.977 1.33665 12.352L1.33331 12.222V3.77801C1.33331 2.47134 2.35798 1.40468 3.64798 1.33668L3.77798 1.33334H12.222ZM10.3333 9.33334C10.0681 9.33334 9.81374 9.4387 9.62621 9.62624C9.43867 9.81377 9.33331 10.0681 9.33331 10.3333C9.33331 10.5986 9.43867 10.8529 9.62621 11.0404C9.81374 11.228 10.0681 11.3333 10.3333 11.3333C10.5985 11.3333 10.8529 11.228 11.0404 11.0404C11.228 10.8529 11.3333 10.5986 11.3333 10.3333C11.3333 10.0681 11.228 9.81377 11.0404 9.62624C10.8529 9.4387 10.5985 9.33334 10.3333 9.33334ZM5.66665 9.33334C5.40143 9.33334 5.14708 9.4387 4.95954 9.62624C4.772 9.81377 4.66665 10.0681 4.66665 10.3333C4.66665 10.5986 4.772 10.8529 4.95954 11.0404C5.14708 11.228 5.40143 11.3333 5.66665 11.3333C5.93186 11.3333 6.18622 11.228 6.37375 11.0404C6.56129 10.8529 6.66665 10.5986 6.66665 10.3333C6.66665 10.0681 6.56129 9.81377 6.37375 9.62624C6.18622 9.4387 5.93186 9.33334 5.66665 9.33334ZM5.66665 4.66668C5.40143 4.66668 5.14708 4.77203 4.95954 4.95957C4.772 5.14711 4.66665 5.40146 4.66665 5.66668C4.66665 5.93189 4.772 6.18625 4.95954 6.37378C5.14708 6.56132 5.40143 6.66668 5.66665 6.66668C5.93186 6.66668 6.18622 6.56132 6.37375 6.37378C6.56129 6.18625 6.66665 5.93189 6.66665 5.66668C6.66665 5.40146 6.56129 5.14711 6.37375 4.95957C6.18622 4.77203 5.93186 4.66668 5.66665 4.66668ZM10.3333 4.66668C10.0681 4.66668 9.81374 4.77203 9.62621 4.95957C9.43867 5.14711 9.33331 5.40146 9.33331 5.66668C9.33331 5.93189 9.43867 6.18625 9.62621 6.37378C9.81374 6.56132 10.0681 6.66668 10.3333 6.66668C10.5985 6.66668 10.8529 6.56132 11.0404 6.37378C11.228 6.18625 11.3333 5.93189 11.3333 5.66668C11.3333 5.40146 11.228 5.14711 11.0404 4.95957C10.8529 4.77203 10.5985 4.66668 10.3333 4.66668Z" fill="#CECECE"/>
</svg>
