<svg width="16" height="16" viewBox="0 0 16 16" fill="none" xmlns="http://www.w3.org/2000/svg">
<g clip-path="url(#clip0_17_1475)">
<path d="M14.4733 2.15667C14.4713 2.15688 14.4693 2.15664 14.4675 2.15598C14.4656 2.15532 14.4639 2.15425 14.4625 2.15284C14.4611 2.15143 14.46 2.14973 14.4593 2.14785C14.4587 2.14598 14.4584 2.14398 14.4587 2.142C14.46 2.088 14.4613 1.89534 14.462 1.85934C14.462 1.77334 14.3667 1.73734 14.3207 1.804L14.168 2.026C14.1667 2.02832 14.1647 2.03019 14.1623 2.03137C14.16 2.03256 14.1573 2.03301 14.1547 2.03267H9.78799C9.78388 2.03276 9.77979 2.03203 9.77595 2.03054C9.77211 2.02905 9.76861 2.02681 9.76564 2.02397C9.76267 2.02112 9.76029 2.01771 9.75863 2.01394C9.75698 2.01018 9.75608 2.00612 9.75599 2.002L9.74733 1.884C9.74726 1.87931 9.74823 1.87466 9.75016 1.87039C9.75209 1.86611 9.75494 1.86231 9.7585 1.85926C9.76206 1.85621 9.76625 1.85397 9.77077 1.85272C9.77529 1.85146 9.78003 1.85122 9.78466 1.852L10.008 1.87334C10.0174 1.8741 10.0268 1.87151 10.0345 1.86602C10.0422 1.86053 10.0477 1.85249 10.05 1.84334L10.2127 1.184C10.2138 1.17663 10.2125 1.16907 10.2089 1.16254C10.2053 1.15602 10.1995 1.1509 10.1927 1.148L10.0413 1.09134C10.0369 1.0898 10.033 1.08715 10.03 1.08364C10.027 1.08013 10.0249 1.07589 10.024 1.07134C9.99666 0.957336 9.77266 0.189336 8.69533 0.0180027C8.17066 -0.0653306 7.82733 0.158003 7.64399 0.336669C7.56272 0.416448 7.49475 0.508728 7.44266 0.610003L7.37799 0.751336C7.36468 0.80268 7.35444 0.854772 7.34733 0.907336L7.38133 1.562C7.38155 1.57299 7.38425 1.58379 7.38921 1.5936C7.39417 1.60341 7.40127 1.61198 7.40999 1.61867L7.64599 1.72067L7.51533 1.93734C7.51315 1.94502 7.50852 1.95179 7.50214 1.9566C7.49576 1.96142 7.48798 1.96402 7.47999 1.964C7.47999 1.964 7.20199 1.97067 7.06533 1.97734C6.80799 1.98734 6.23533 2.30067 5.81333 3.20267L5.33066 4.236C5.32666 4.24449 5.32019 4.25157 5.31211 4.25633C5.30402 4.26109 5.29469 4.2633 5.28533 4.26267L4.89999 4.26334C4.87666 4.26334 4.85133 4.282 4.84133 4.30334L4.24266 6C4.23811 6.01195 4.23676 6.02488 4.23875 6.03751C4.24074 6.05014 4.24599 6.06203 4.25399 6.072L4.67199 6.33334C4.67749 6.33799 4.68163 6.34403 4.68397 6.35084C4.68632 6.35764 4.68679 6.36495 4.68533 6.372L4.46666 7.01667C4.46388 7.0312 4.45869 7.04517 4.45133 7.058L4.16133 7.31267C4.14902 7.32279 4.14074 7.33698 4.13799 7.35267L3.73933 8.37267C3.73706 8.38147 3.73186 8.38924 3.72459 8.39469C3.71732 8.40014 3.70841 8.40296 3.69933 8.40267L3.47533 8.404C3.44817 8.40407 3.42202 8.4143 3.40203 8.43269C3.38204 8.45107 3.36966 8.47628 3.36733 8.50334L3.23333 10.0287L3.22266 10.1093L3.11733 10.7147C3.11298 10.7286 3.10518 10.7412 3.09466 10.7513L2.72266 11.036C2.52361 11.235 2.35168 11.4594 2.21133 11.7033L0.971325 14.3193C0.939203 14.3865 0.921489 14.4596 0.919325 14.534L1.00733 14.6907C1.00866 14.7467 0.985992 14.9947 0.960659 15.044L0.544659 15.7707C0.540181 15.7794 0.53768 15.789 0.537334 15.7988C0.536988 15.8086 0.538806 15.8183 0.542659 15.8273L0.562659 15.874L0.625325 15.9987L1.88599 16C1.96466 16.0073 2.05066 15.9067 2.05333 15.8L2.12199 14.9353L2.10399 14.8053L4.50799 11.984C4.57133 11.908 4.65599 11.7727 4.69866 11.684L5.84466 9.15734C5.85125 9.14357 5.86055 9.13128 5.87201 9.1212C5.88346 9.11112 5.89684 9.10346 5.91133 9.09867L5.98399 9.07534C6.00553 9.06837 6.02866 9.06801 6.05041 9.07431C6.07215 9.08061 6.09151 9.09327 6.10599 9.11067C6.20599 9.23134 6.44199 9.63134 6.55666 9.79867C6.65199 9.93734 7.12333 10.6187 7.32866 10.8433C7.38599 10.9053 7.56133 10.9753 7.63933 11.0233C7.65174 11.0307 7.66079 11.0426 7.66453 11.0566C7.66826 11.0705 7.6664 11.0854 7.65933 11.098L6.97266 12.3033L6.66933 13.7273C6.6587 13.7604 6.65067 13.7943 6.64533 13.8287L6.37066 14.8173C6.37266 14.9427 6.27733 15.008 6.26866 15.1553L6.16866 15.878C6.16857 15.8833 6.16952 15.8885 6.17145 15.8934C6.17338 15.8983 6.17625 15.9027 6.1799 15.9065C6.18355 15.9103 6.18792 15.9133 6.19274 15.9154C6.19756 15.9175 6.20274 15.9186 6.20799 15.9187L7.90399 15.928C7.9671 15.9276 8.03066 15.9262 8.09466 15.924L8.14466 15.9193C8.22733 15.9087 8.51999 15.8687 8.64466 15.8193C8.70086 15.8019 8.75254 15.7723 8.79599 15.7327C8.91933 15.6033 8.92933 15.5473 8.93133 15.4673C8.92942 15.4431 8.92309 15.4193 8.91266 15.3973C8.90309 15.3828 8.88904 15.3718 8.87266 15.366L8.08599 15.1287C8.03527 15.1133 7.99085 15.082 7.95933 15.0393L7.74799 14.726C7.74348 14.7152 7.74221 14.7034 7.74434 14.6919C7.74647 14.6804 7.75191 14.6698 7.75999 14.6613L8.17199 14.2553C8.18603 14.2419 8.19696 14.2255 8.20399 14.2073L9.47333 11.2153C9.53266 11.0253 9.51266 10.812 9.47333 10.586C9.44399 10.4193 9.01599 9.702 8.90399 9.50334L8.04666 8.00267C7.99399 7.91067 7.91999 7.914 7.89466 7.81867L7.84599 7.07334C7.845 7.06954 7.84486 7.06557 7.84558 7.06172C7.8463 7.05786 7.84786 7.05421 7.85016 7.05103C7.85245 7.04784 7.85541 7.04521 7.85884 7.0433C7.86227 7.04139 7.86608 7.04027 7.86999 7.04L8.08999 7.02134C8.10023 7.02023 8.11008 7.01676 8.11875 7.01121C8.12743 7.00566 8.1347 6.99817 8.13999 6.98934L8.90466 5.55267C8.90959 5.54292 8.91205 5.5321 8.91182 5.52117C8.91158 5.51024 8.90867 5.49954 8.90333 5.49L8.74666 5.29667C8.74154 5.28777 8.73878 5.2777 8.73867 5.26742C8.73855 5.25715 8.74107 5.24702 8.74599 5.238L8.98066 4.98467C8.9854 4.97651 8.99316 4.97054 9.00227 4.96805C9.01137 4.96556 9.02108 4.96674 9.02933 4.97134L9.65199 5.322C9.68999 5.34305 9.73256 5.35449 9.77599 5.35534C9.94933 5.35467 10.2333 5.25267 10.3813 5.162C10.4202 5.13763 10.4521 5.10365 10.474 5.06334L10.7793 4.35C10.7833 4.34067 10.7973 4.342 10.7993 4.352L10.884 4.74867C10.8851 4.75441 10.8873 4.75987 10.8906 4.7647C10.8939 4.76953 10.8982 4.77364 10.9031 4.77677C10.908 4.77989 10.9136 4.78197 10.9193 4.78287C10.9251 4.78377 10.931 4.78348 10.9367 4.782L11.8367 4.582C11.8479 4.57945 11.8577 4.57257 11.864 4.56284C11.8702 4.55311 11.8724 4.54131 11.87 4.53L11.6573 3.634C11.656 3.62786 11.6558 3.62151 11.657 3.61532C11.6581 3.60914 11.6605 3.60324 11.664 3.598L11.7507 3.46267C11.7616 3.44579 11.7699 3.42736 11.7753 3.408L11.8813 2.92467C11.8826 2.91856 11.8859 2.91307 11.8908 2.90917C11.8957 2.90528 11.9018 2.90321 11.908 2.90334L14.396 2.90667C14.4042 2.90695 14.4124 2.90554 14.42 2.90252C14.4277 2.8995 14.4346 2.89494 14.4405 2.88913C14.4463 2.88332 14.4508 2.87637 14.4538 2.86872C14.4569 2.86107 14.4583 2.85289 14.458 2.84467V2.422C14.4579 2.42008 14.4582 2.41815 14.4589 2.41636C14.4596 2.41457 14.4607 2.41295 14.4621 2.41162C14.4635 2.41029 14.4652 2.40928 14.467 2.40865C14.4688 2.40803 14.4707 2.40781 14.4727 2.408H15.432C15.4402 2.40783 15.448 2.40445 15.4537 2.39859C15.4595 2.39274 15.4627 2.38487 15.4627 2.37667V2.18667C15.4627 2.17847 15.4595 2.1706 15.4537 2.16475C15.448 2.15889 15.4402 2.15551 15.432 2.15534H14.472L14.4733 2.15667Z" fill="#CECECE"/>
</g>
<defs>
<clipPath id="clip0_17_1475">
<rect width="16" height="16" fill="white"/>
</clipPath>
</defs>
</svg>
