<svg width="32" height="32" viewBox="0 0 32 32" fill="none" xmlns="http://www.w3.org/2000/svg">
<path d="M15 10.4627C13.752 10.804 13 11.7627 13 12.6667C13 13.5707 13.752 14.5293 15 14.8693V10.4627ZM17 17.1307V21.536C18.248 21.196 19 20.2373 19 19.3333C19 18.4293 18.248 17.4707 17 17.1307Z" fill="#6BDD0F"/>
<path fill-rule="evenodd" clip-rule="evenodd" d="M29.3334 16C29.3334 23.364 23.3641 29.3333 16.0001 29.3333C8.63608 29.3333 2.66675 23.364 2.66675 16C2.66675 8.63601 8.63608 2.66667 16.0001 2.66667C23.3641 2.66667 29.3334 8.63601 29.3334 16ZM16.0001 7.00001C16.2653 7.00001 16.5197 7.10536 16.7072 7.2929C16.8947 7.48043 17.0001 7.73479 17.0001 8.00001V8.42267C19.1734 8.81201 21.0001 10.4453 21.0001 12.6667C21.0001 12.9319 20.8947 13.1862 20.7072 13.3738C20.5197 13.5613 20.2653 13.6667 20.0001 13.6667C19.7349 13.6667 19.4805 13.5613 19.293 13.3738C19.1054 13.1862 19.0001 12.9319 19.0001 12.6667C19.0001 11.7627 18.2481 10.804 17.0001 10.4627V15.0893C19.1734 15.4787 21.0001 17.112 21.0001 19.3333C21.0001 21.5547 19.1734 23.188 17.0001 23.5773V24C17.0001 24.2652 16.8947 24.5196 16.7072 24.7071C16.5197 24.8946 16.2653 25 16.0001 25C15.7349 25 15.4805 24.8946 15.293 24.7071C15.1054 24.5196 15.0001 24.2652 15.0001 24V23.5773C12.8267 23.188 11.0001 21.5547 11.0001 19.3333C11.0001 19.0681 11.1054 18.8138 11.293 18.6262C11.4805 18.4387 11.7349 18.3333 12.0001 18.3333C12.2653 18.3333 12.5197 18.4387 12.7072 18.6262C12.8947 18.8138 13.0001 19.0681 13.0001 19.3333C13.0001 20.2373 13.7521 21.196 15.0001 21.536V16.9107C12.8267 16.5213 11.0001 14.888 11.0001 12.6667C11.0001 10.4453 12.8267 8.81201 15.0001 8.42267V8.00001C15.0001 7.73479 15.1054 7.48043 15.293 7.2929C15.4805 7.10536 15.7349 7.00001 16.0001 7.00001Z" fill="#6BDD0F"/>
</svg>
