<svg width="16" height="16" viewBox="0 0 16 16" fill="none" xmlns="http://www.w3.org/2000/svg">
<path d="M6 14H3.33333C2.96667 14 2.65289 13.8696 2.392 13.6087C2.13111 13.3478 2.00044 13.0338 2 12.6667V8C2 7.16667 2.15844 6.38622 2.47533 5.65867C2.79222 4.93111 3.21978 4.29778 3.758 3.75867C4.29622 3.21956 4.92956 2.79178 5.658 2.47533C6.38645 2.15889 7.16711 2.00045 8 2C8.83289 1.99956 9.61356 2.158 10.342 2.47533C11.0704 2.79267 11.7038 3.22022 12.242 3.758C12.7802 4.29578 13.208 4.92911 13.5253 5.658C13.8427 6.38689 14.0009 7.16756 14 8V12.6667C14 13.0333 13.8696 13.3473 13.6087 13.6087C13.3478 13.87 13.0338 14.0004 12.6667 14H10V8.66667H12.6667V8C12.6667 6.7 12.214 5.59733 11.3087 4.692C10.4033 3.78667 9.30044 3.33378 8 3.33333C6.69956 3.33289 5.59689 3.78578 4.692 4.692C3.78711 5.59822 3.33422 6.70089 3.33333 8V8.66667H6V14Z" fill="#CECECE"/>
</svg>
