<svg width="73" height="30" viewBox="0 0 73 30" fill="none" xmlns="http://www.w3.org/2000/svg">
<g clip-path="url(#clip0_16_194)">
<path d="M13.3062 3.85351C12.4532 4.86299 11.088 5.65948 9.72288 5.54559C9.55226 4.18066 10.2205 2.73014 11.0026 1.83427C11.8557 0.796351 13.3489 0.056872 14.5576 0C14.6998 1.42194 14.1451 2.81545 13.3062 3.85351ZM14.5435 5.81588C12.5669 5.70213 10.8748 6.9391 9.93629 6.9391C8.98369 6.9391 7.54738 5.87275 5.98326 5.90119C3.94994 5.92962 2.05866 7.08128 1.02061 8.91569C-1.11238 12.5844 0.466103 18.0163 2.52786 21.0024C3.53748 22.4812 4.74615 24.1022 6.33871 24.0454C7.8461 23.9885 8.44326 23.0643 10.2634 23.0643C12.0977 23.0643 12.6239 24.0454 14.2165 24.0169C15.8659 23.9885 16.904 22.5382 17.9136 21.0593C19.0653 19.3814 19.5346 17.7461 19.563 17.6608C19.5346 17.6323 16.3779 16.4238 16.3495 12.7834C16.321 9.74047 18.8379 8.2901 18.9516 8.20479C17.5296 6.10024 15.3114 5.87275 14.5435 5.81588ZM25.962 1.69209V23.8607H29.403V16.2816H34.1666C38.5178 16.2816 41.5751 13.2955 41.5751 8.9727C41.5751 4.65 38.5746 1.69223 34.2804 1.69223L25.962 1.69209ZM29.403 4.59299H33.3703C36.3565 4.59299 38.0628 6.18555 38.0628 8.98678C38.0628 11.788 36.3565 13.3949 33.3561 13.3949H29.403V4.59299ZM47.86 24.0311C50.0214 24.0311 52.0263 22.9364 52.9364 21.2015H53.0075V23.8605H56.1927V12.8261C56.1927 9.62673 53.6332 7.56483 49.6943 7.56483C46.0398 7.56483 43.3381 9.65517 43.2386 12.5275H46.3385C46.5944 11.1624 47.8599 10.2665 49.5947 10.2665C51.6993 10.2665 52.8795 11.2477 52.8795 13.0537V14.2764L48.5851 14.5324C44.5894 14.7741 42.4281 16.4094 42.4281 19.2535C42.4281 22.1258 44.6605 24.0311 47.86 24.0311ZM48.7842 21.4005C46.95 21.4005 45.7839 20.519 45.7839 19.168C45.7839 17.7746 46.9072 16.9641 49.0544 16.8361L52.8795 16.5944V17.8456C52.8795 19.9217 51.1163 21.4005 48.7843 21.4005M60.4445 29.8897C63.8004 29.8897 65.3787 28.61 66.758 24.728L72.8012 7.7781H69.3032L65.2506 20.8743H65.1795L61.127 7.7781H57.5294L63.3593 23.9174L63.0465 24.8986C62.5205 26.5622 61.6672 27.2022 60.1458 27.2022C59.8756 27.2022 59.3496 27.1737 59.1362 27.1453V29.8044C59.3352 29.8612 60.1883 29.8897 60.4444 29.8897" fill="white"/>
</g>
<defs>
<clipPath id="clip0_16_194">
<rect width="72.8063" height="30" fill="white"/>
</clipPath>
</defs>
</svg>
