<svg width="64" height="50" viewBox="0 0 64 50" fill="none" xmlns="http://www.w3.org/2000/svg">
<path d="M23.3275 4.24698H40.609V35.4658H23.3275V4.24698Z" fill="#FF5F00"/>
<path d="M24.4249 19.8565C24.4249 13.5136 27.3873 7.88744 31.9408 4.24698C28.5944 1.5995 24.3701 0 19.7617 0C8.84373 0 0.0110168 8.88015 0.0110168 19.8565C0.0110168 30.8329 8.84373 39.7131 19.7615 39.7131C24.3699 39.7131 28.5942 38.1136 31.9408 35.4658C27.3873 31.8807 24.4249 26.1995 24.4249 19.8565Z" fill="#EB001B"/>
<path d="M63.9255 19.8565C63.9255 30.8327 55.0928 39.7131 44.1751 39.7131C39.5667 39.7131 35.3424 38.1136 31.9958 35.4658C36.6042 31.8256 39.5119 26.1995 39.5119 19.8565C39.5119 13.5136 36.5492 7.88744 31.9958 4.24698C35.3421 1.5995 39.5667 0 44.1751 0C55.0928 0 63.9255 8.93543 63.9255 19.8565Z" fill="#F79E1B"/>
</svg>
