<svg width="76" height="30" viewBox="0 0 76 30" fill="none" xmlns="http://www.w3.org/2000/svg">
<g clip-path="url(#clip0_16_205)">
<path d="M53.3746 8.09662C55.4444 8.09662 57.044 8.66118 58.2672 9.7903C59.4903 10.9193 60.0547 12.4247 60.0547 14.3065V23.3388H57.4203V21.2691H57.3262C56.1972 22.9628 54.5977 23.8096 52.7159 23.8096C51.1163 23.8096 49.705 23.339 48.576 22.3982C47.541 21.4574 46.8824 20.1402 46.8824 18.7288C46.8824 17.2233 47.4469 16.0001 48.576 15.0593C49.705 14.1184 51.3046 13.7421 53.1863 13.7421C54.8799 13.7421 56.1972 14.0244 57.2321 14.6829V14.0244C57.2321 13.1462 56.9043 12.2681 56.2485 11.6959L56.1029 11.5781C55.3503 10.9194 54.4094 10.5431 53.3746 10.5431C51.7751 10.5431 50.5519 11.2017 49.705 12.519L47.2588 11.0132C48.7641 9.03736 50.74 8.09662 53.3746 8.09662ZM40.1081 1.69853C41.7963 1.69853 43.4007 2.28603 44.6835 3.38162L44.9066 3.58015C46.2238 4.70927 46.8824 6.40294 46.8824 8.19059C46.8824 9.97824 46.2238 11.5778 44.9066 12.8009C43.5894 14.024 41.9899 14.6827 40.1081 14.6827L35.5919 14.5885V23.3388H32.7691V1.69853H40.1081ZM53.7507 16C52.6217 16 51.6809 16.2823 50.9282 16.8468C50.1755 17.3172 49.7991 17.9757 49.7991 18.8225C49.7991 19.5753 50.1756 20.2338 50.74 20.6103C51.3987 21.0807 52.1513 21.3629 52.9041 21.3629C53.9578 21.3629 55.0116 20.9531 55.8359 20.21L56.009 20.0457C56.9499 19.199 57.4203 18.164 57.4203 17.0349C56.5735 16.3763 55.3503 15.9999 53.7509 15.9999M40.2965 4.3328H35.5921V11.8603H40.2965C41.3313 11.8603 42.3663 11.484 43.025 10.7313C44.5303 9.32 44.5303 6.9678 43.1191 5.55633L43.025 5.46221C42.2722 4.70956 41.3313 4.23912 40.2963 4.33324M75.2971 8.56706L65.9824 29.9251H63.1597L66.6409 22.4922L60.5252 8.66118H63.536L67.9581 19.2931H68.0522L72.3803 8.66118H75.2971V8.56706Z" fill="#5F6368"/>
<path d="M24.3953 12.7069C24.3953 11.8601 24.3012 11.0134 24.2071 10.1666H12.4463V14.9651H19.1265C18.8443 16.4704 17.9975 17.8818 16.6803 18.7287V21.8335H20.726C23.0782 19.6696 24.3954 16.4704 24.3954 12.7071" fill="#4285F4"/>
<path d="M12.4462 24.8444C15.8332 24.8444 18.6559 23.7153 20.7259 21.8335L16.6801 18.7287C15.551 19.4813 14.1397 19.9518 12.4462 19.9518C9.24706 19.9518 6.42441 17.7878 5.48353 14.7769H1.34382V17.9759C3.50779 22.2099 7.74176 24.8444 12.4462 24.8444Z" fill="#34A853"/>
<path d="M5.48353 14.7769C4.91912 13.2715 4.91912 11.5779 5.48353 9.97838V6.77941H1.34382C-0.443971 10.2607 -0.443971 14.4006 1.34382 17.9759L5.48353 14.7769Z" fill="#FBBC04"/>
<path d="M12.4462 4.89764C14.2338 4.89764 15.9274 5.55632 17.2447 6.77941L20.82 3.20411C18.5618 1.13411 15.551 -0.0889739 12.5401 0.00499666C7.83574 0.00499666 3.50779 2.63956 1.43779 6.87353L5.57765 10.0725C6.42441 7.06161 9.24706 4.89764 12.4462 4.89764Z" fill="#EA4335"/>
</g>
<defs>
<clipPath id="clip0_16_205">
<rect width="75.3" height="30" fill="white"/>
</clipPath>
</defs>
</svg>
