<svg width="16" height="16" viewBox="0 0 16 16" fill="none" xmlns="http://www.w3.org/2000/svg">
<path fill-rule="evenodd" clip-rule="evenodd" d="M8.03465 0.833344H7.96531C7.36598 0.833344 6.86665 0.833344 6.47065 0.886677C6.05198 0.942677 5.67398 1.06668 5.37065 1.37001C5.06665 1.67401 4.94265 2.05201 4.88665 2.47001C4.84865 2.75468 4.83731 3.43401 4.83465 4.01668C3.48665 4.06134 2.67665 4.21868 2.11465 4.78134C1.33331 5.56201 1.33331 6.81934 1.33331 9.33334C1.33331 11.8473 1.33331 13.1047 2.11465 13.8853C2.89531 14.6667 4.15265 14.6667 6.66665 14.6667H9.33331C11.8473 14.6667 13.1046 14.6667 13.8853 13.8853C14.6666 13.1047 14.6666 11.8473 14.6666 9.33334C14.6666 6.81934 14.6666 5.56201 13.8853 4.78134C13.3233 4.21868 12.5133 4.06134 11.1653 4.01734C11.1626 3.43401 11.152 2.75468 11.1133 2.47068C11.0573 2.05201 10.9333 1.67401 10.6293 1.37068C10.326 1.06668 9.94798 0.942677 9.52931 0.886677C9.13331 0.833344 8.63331 0.833344 8.03465 0.833344ZM10.1653 4.00134C10.162 3.43668 10.1526 2.82934 10.1226 2.60334C10.0806 2.29601 10.0093 2.16401 9.92265 2.07734C9.83598 1.99068 9.70398 1.91934 9.39598 1.87734C9.07465 1.83468 8.64265 1.83334 7.99998 1.83334C7.35731 1.83334 6.92531 1.83468 6.60331 1.87801C6.29598 1.91934 6.16398 1.99068 6.07731 2.07801C5.99065 2.16468 5.91931 2.29601 5.87731 2.60334C5.84731 2.83001 5.83731 3.43668 5.83465 4.00134C6.09531 4.00001 6.37331 4.00001 6.66665 4.00001H9.33331C9.62731 4.00001 9.90465 4.00001 10.1653 4.00134ZM7.99998 6.16668C8.13259 6.16668 8.25976 6.21936 8.35353 6.31312C8.4473 6.40689 8.49998 6.53407 8.49998 6.66668V6.67334C9.22598 6.85601 9.83331 7.42868 9.83331 8.22201C9.83331 8.35462 9.78063 8.4818 9.68687 8.57556C9.5931 8.66933 9.46592 8.72201 9.33331 8.72201C9.20071 8.72201 9.07353 8.66933 8.97976 8.57556C8.88599 8.4818 8.83331 8.35462 8.83331 8.22201C8.83331 7.96601 8.54931 7.61134 7.99998 7.61134C7.45065 7.61134 7.16665 7.96601 7.16665 8.22201C7.16665 8.47801 7.45065 8.83334 7.99998 8.83334C8.92331 8.83334 9.83331 9.47334 9.83331 10.4447C9.83331 11.238 9.22598 11.81 8.49998 11.9933V12C8.49998 12.1326 8.4473 12.2598 8.35353 12.3536C8.25976 12.4473 8.13259 12.5 7.99998 12.5C7.86737 12.5 7.74019 12.4473 7.64643 12.3536C7.55266 12.2598 7.49998 12.1326 7.49998 12V11.9933C6.77398 11.8107 6.16665 11.238 6.16665 10.4447C6.16665 10.3121 6.21933 10.1849 6.31309 10.0911C6.40686 9.99736 6.53404 9.94468 6.66665 9.94468C6.79925 9.94468 6.92643 9.99736 7.0202 10.0911C7.11397 10.1849 7.16665 10.3121 7.16665 10.4447C7.16665 10.7007 7.45065 11.0553 7.99998 11.0553C8.54931 11.0553 8.83331 10.7007 8.83331 10.4447C8.83331 10.1887 8.54931 9.83334 7.99998 9.83334C7.07665 9.83334 6.16665 9.19334 6.16665 8.22201C6.16665 7.42868 6.77398 6.85601 7.49998 6.67334V6.66668C7.49998 6.53407 7.55266 6.40689 7.64643 6.31312C7.74019 6.21936 7.86737 6.16668 7.99998 6.16668Z" fill="#CECECE"/>
</svg>
