<svg width="16" height="16" viewBox="0 0 16 16" fill="none" xmlns="http://www.w3.org/2000/svg">
<path d="M14.5073 7.85036C14.4827 6.77386 14.1961 5.76298 13.7099 4.87611L13.7143 4.87379L13.6391 4.74411L13.5641 4.61464L13.5598 4.61717C13.0182 3.72857 12.2715 2.98179 11.3828 2.44011L11.3854 2.43586L11.256 2.36104L11.1262 2.28579L11.124 2.29004C10.2371 1.80386 9.22589 1.51729 8.14958 1.49264V1.48776H7.99992H7.85014V1.49264C6.77383 1.51732 5.7627 1.80386 4.8762 2.29004L4.87376 2.28579L4.74408 2.36104C4.74364 2.36126 4.74333 2.36167 4.74292 2.36189L4.61473 2.43586L4.61717 2.44011C3.72879 2.98179 2.98179 3.72857 2.44023 4.61717L2.43598 4.61464L2.36095 4.74411L2.28601 4.87379L2.29014 4.87611C1.80364 5.76279 1.51708 6.77386 1.49273 7.85036H1.48773V8.00001V8.14967H1.49273C1.51708 9.22617 1.80361 10.2372 2.29001 11.1237L2.28589 11.126L2.36083 11.2559L2.43586 11.3854L2.44014 11.3826C2.98179 12.2714 3.7287 13.0182 4.61711 13.5599L4.61464 13.5641L4.74283 13.6381C4.74323 13.6384 4.74358 13.6388 4.74401 13.639L4.8737 13.7142L4.87626 13.71C5.76273 14.1959 6.77389 14.4825 7.8502 14.5074V14.5123H7.99998H8.14964V14.5074C9.22595 14.4825 10.237 14.1959 11.1237 13.71L11.126 13.7142L11.2558 13.639L11.3853 13.5641L11.3828 13.5599C12.2713 13.0182 13.0182 12.2714 13.5599 11.3826L13.5641 11.3854L13.6392 11.2559L13.7143 11.126L13.71 11.1237C14.1962 10.2372 14.4827 9.22617 14.5074 8.14967H14.5123V8.00001V7.85036H14.5073ZM11.8422 5.60864L10.7223 6.25511C10.4704 5.86267 10.1368 5.52936 9.74451 5.27764L10.3912 4.15795C10.9788 4.52426 11.4755 5.02129 11.8422 5.60864ZM12.5237 8.14967C12.5002 8.86542 12.3107 9.53764 11.9922 10.1324L10.8724 9.48551C11.082 9.08245 11.21 8.63007 11.2323 8.14964H12.5237V8.14967ZM8.14958 3.17201V1.79214C9.17223 1.81657 10.1312 2.08826 10.9741 2.54936L10.2839 3.74429L10.2817 3.74854C9.64317 3.40479 8.91923 3.20048 8.14958 3.17689V3.17201ZM7.85017 3.47645V4.7677C7.36986 4.78979 6.91758 4.91798 6.51429 5.12761L5.86801 4.0077C6.4622 3.68945 7.13439 3.49983 7.85017 3.47645ZM4.76686 2.69945L5.45914 3.89842C4.82608 4.29148 4.29164 4.82573 3.89858 5.4592L3.89423 5.45642H3.89411L2.69936 4.76682C3.21467 3.92414 3.92408 3.21476 4.76686 2.69945ZM5.12751 6.51426C4.91789 6.91751 4.78992 7.36992 4.76761 7.85036H3.47623C3.49973 7.13436 3.68936 6.46239 4.0077 5.86761L5.0417 6.46476L5.12751 6.51426ZM3.74433 10.284L2.54917 10.974C2.0882 10.1311 1.81651 9.1722 1.79217 8.14967H3.17195H3.17695C3.20054 8.9192 3.40495 9.64326 3.74839 10.2817L3.74426 10.284H3.74433ZM4.1577 10.3912L5.27748 9.74467C5.52961 10.1371 5.86304 10.4704 6.25526 10.7224L5.60876 11.8423C5.02111 11.4758 4.52442 10.9787 4.1577 10.3912ZM7.85017 12.828V14.2077C6.82773 14.1832 5.8687 13.9115 5.02589 13.4507L5.71817 12.2517C6.35645 12.5952 7.08042 12.7993 7.85017 12.8231V12.828ZM7.99992 10.9381C7.46464 10.9379 6.96504 10.7927 6.53236 10.5425C6.08654 10.2844 5.71551 9.91345 5.45754 9.4677C5.20711 9.03489 5.06204 8.53533 5.06192 8.00001C5.06204 7.46473 5.20711 6.96517 5.45754 6.53211C5.71554 6.08632 6.08658 5.71557 6.53236 5.45751C6.96508 5.20707 7.46464 5.06211 7.99992 5.06189C8.5352 5.06189 9.03498 5.20729 9.46748 5.45751L9.46876 5.45836C9.91401 5.71601 10.2848 6.08673 10.5425 6.53211C10.7927 6.96517 10.9379 7.46473 10.9381 8.00001C10.9379 8.53529 10.7927 9.03486 10.5425 9.4677C10.2843 9.91348 9.91336 10.2844 9.4677 10.5425C9.03479 10.7927 8.53523 10.9379 7.99992 10.9381ZM8.14958 12.5234V11.2321C8.63014 11.2102 9.08239 11.082 9.48558 10.8724L10.1319 11.9923C9.53745 12.3106 8.86558 12.5002 8.14958 12.5234ZM11.233 13.3006L10.543 12.1059H10.5433L10.5408 12.1016C11.174 11.7083 11.7083 11.1743 12.1013 10.5408L12.1055 10.5436V10.5434L12.1469 10.5672L13.3007 11.2332C12.7853 12.0756 12.0756 12.7855 11.233 13.3006ZM12.828 7.85036H12.8231C12.7994 7.08061 12.5948 6.35676 12.2514 5.71817L13.4506 5.02598C13.9115 5.86886 14.1835 6.82761 14.2079 7.85036H12.828Z" fill="#CECECE"/>
<path d="M7.99994 6.10352e-05C3.58159 0.000279785 0.00021875 3.58187 0 8C0.00021875 12.4183 3.58159 15.9997 7.99994 15.9999C12.4181 15.9997 15.9998 12.4183 16 8C15.9998 3.58187 12.4181 0.000279785 7.99994 6.10352e-05ZM13.2596 13.2597C11.9126 14.6065 10.0548 15.4383 7.99994 15.4385C5.94491 15.4383 4.08712 14.6065 2.74009 13.2597C1.39359 11.9128 0.561437 10.0548 0.561312 8C0.561437 5.94516 1.39359 4.08741 2.74009 2.74025C4.08712 1.39353 5.94491 0.561467 7.99994 0.561467C10.0548 0.561467 11.9126 1.39353 13.2596 2.74025C14.6064 4.08737 15.4383 5.94512 15.4386 8C15.4383 10.0548 14.6064 11.9128 13.2596 13.2597Z" fill="#CECECE"/>
<path d="M10.0351 8C10.0351 7.71344 9.803 7.4815 9.51644 7.4815C9.3265 7.4815 9.161 7.58415 9.07075 7.73637H8.26369V6.9294C8.41581 6.83906 8.51869 6.67365 8.51869 6.4834C8.51869 6.19684 8.28644 5.96494 8 5.96494C7.71344 5.96494 7.48141 6.19684 7.48141 6.4834C7.48141 6.67365 7.58428 6.83906 7.73628 6.9294V7.73637H6.92931C6.83906 7.58415 6.67369 7.4815 6.48353 7.4815C6.19697 7.4815 5.96484 7.71344 5.96484 8C5.96484 8.28656 6.19697 8.5185 6.48353 8.5185C6.67366 8.5185 6.83906 8.41581 6.92931 8.26362H7.73628V9.07059C7.58428 9.16094 7.48141 9.32634 7.48141 9.51637C7.48141 9.80293 7.71344 10.0351 8 10.0351C8.28644 10.0351 8.51869 9.80293 8.51869 9.51637C8.51869 9.32634 8.41581 9.16094 8.26369 9.07059V8.26362H9.07075C9.161 8.41581 9.3265 8.5185 9.51644 8.5185C9.80297 8.5185 10.0351 8.28656 10.0351 8Z" fill="#CECECE"/>
<path d="M7.02898 4.64734C7.22266 4.64734 7.37976 4.49024 7.37976 4.29637C7.37976 4.10271 7.22266 3.94562 7.02898 3.94562C6.8351 3.94562 6.6781 4.10274 6.6781 4.29637C6.6781 4.49024 6.8351 4.64734 7.02898 4.64734Z" fill="#CECECE"/>
</svg>
