<svg width="16" height="16" viewBox="0 0 16 16" fill="none" xmlns="http://www.w3.org/2000/svg">
<path d="M12.3333 9.33333C13.2667 9.33333 14 10.0667 14 11C14 11.9333 13.2667 12.6667 12.3333 12.6667C11.4 12.6667 10.6667 11.9333 10.6667 11C10.6667 10.0667 11.4 9.33333 12.3333 9.33333ZM4.66667 10C4.66667 10 5.33333 10.6667 5.33333 11.3333V13.6667C5.33333 14.2 5.8 14.6667 6.33333 14.6667C6.86667 14.6667 7.33333 14.2 7.33333 13.6667V11.3333C7.33333 10.6667 8 10 8 10H4.66667ZM5.33333 9.33333H7.33333C7.33333 9.33333 10.6667 9.33333 10.6667 6C10.6667 2.66667 8 1.33333 6.33333 1.33333C4.66667 1.33333 2 2.66667 2 6C2 9.33333 5.33333 9.33333 5.33333 9.33333Z" fill="#CECECE"/>
</svg>
