<svg width="16" height="16" viewBox="0 0 16 16" fill="none" xmlns="http://www.w3.org/2000/svg">
<path d="M13.792 11.0053C13.6932 10.9499 13.5961 10.8916 13.5006 10.8307C13.1599 10.6118 12.8339 10.3708 12.5246 10.1093C11.7406 9.45133 10.7446 8.41933 9.87731 6.918C9.01065 5.416 8.61531 4.038 8.43731 3.02933C8.3654 2.63053 8.31975 2.22745 8.30065 1.82267C8.29551 1.70986 8.29351 1.59692 8.29465 1.484C8.29531 1.444 8.29998 1.36267 8.30065 1.34067C7.02941 1.2814 5.76795 1.58896 4.66665 2.22667C3.56457 2.86078 2.66788 3.79819 2.08331 4.92733L2.20931 4.996C2.27931 5.036 2.37798 5.09333 2.50065 5.17067C2.74531 5.32667 3.08465 5.56267 3.47665 5.892C4.26065 6.55067 5.25665 7.582 6.12331 9.084C6.99065 10.5853 7.38598 11.964 7.56465 12.972C7.65331 13.4767 7.68798 13.8887 7.70065 14.1787C7.70731 14.3233 7.70731 14.438 7.70665 14.518V14.6613C8.97548 14.719 10.2342 14.4112 11.3333 13.7747C12.4347 13.1414 13.3311 12.2052 13.916 11.0773L13.792 11.0053Z" fill="#CECECE"/>
<path d="M6.70666 14.5407C6.70784 14.4344 6.70629 14.3282 6.70199 14.222C6.68486 13.8613 6.6441 13.5021 6.57999 13.1467C6.41933 12.234 6.05799 10.9693 5.25866 9.58467C4.45866 8.19933 3.54399 7.25467 2.83399 6.658C2.55856 6.42503 2.26816 6.21035 1.96466 6.01533C1.85866 5.94867 1.74466 5.88267 1.68999 5.852C1.38267 6.75121 1.2716 7.70584 1.36429 8.65159C1.45698 9.59733 1.75127 10.5122 2.22733 11.3347C2.70153 12.1581 3.3467 12.8704 4.11937 13.4236C4.89205 13.9767 5.77428 14.3572 6.70666 14.5407ZM9.29533 1.46133C9.294 1.5678 9.29533 1.67427 9.29933 1.78067C9.31066 2.03067 9.34133 2.39867 9.422 2.85533C9.58266 3.76867 9.94399 5.03267 10.7433 6.418C11.5433 7.80267 12.458 8.74733 13.168 9.344C13.5227 9.642 13.826 9.852 14.0373 9.98667C14.1433 10.054 14.2573 10.12 14.312 10.15C14.6192 9.25089 14.7302 8.29638 14.6375 7.35076C14.5449 6.40513 14.2506 5.49035 13.7747 4.668C13.3005 3.84452 12.6553 3.13222 11.8826 2.57908C11.1099 2.02594 10.2277 1.6448 9.29533 1.46133Z" fill="#CECECE"/>
</svg>
