<svg width="16" height="16" viewBox="0 0 16 16" fill="none" xmlns="http://www.w3.org/2000/svg">
<path d="M8 1.5C6.71442 1.5 5.45772 1.88122 4.3888 2.59545C3.31988 3.30968 2.48676 4.32484 1.99479 5.51256C1.50282 6.70028 1.37409 8.00721 1.6249 9.26809C1.8757 10.529 2.49477 11.6872 3.40381 12.5962C4.31285 13.5052 5.47104 14.1243 6.73192 14.3751C7.99279 14.6259 9.29973 14.4972 10.4874 14.0052C11.6752 13.5132 12.6903 12.6801 13.4046 11.6112C14.1188 10.5423 14.5 9.28558 14.5 8C14.4982 6.27665 13.8128 4.62441 12.5942 3.40582C11.3756 2.18722 9.72335 1.50182 8 1.5ZM3.75 4.51062C4.45175 5.36015 4.87952 6.40243 4.97688 7.5H2.52313C2.62179 6.40275 3.0494 5.36084 3.75 4.51062ZM8.5 7.5V2.52312C9.62092 2.62468 10.6833 3.06924 11.5425 3.79625C10.6539 4.83755 10.1202 6.13487 10.0188 7.5H8.5ZM7.5 7.5H5.98125C5.8798 6.13487 5.34608 4.83755 4.4575 3.79625C5.3167 3.06924 6.37908 2.62468 7.5 2.52312V7.5ZM4.97688 8.5C4.87952 9.59757 4.45175 10.6399 3.75 11.4894C3.0494 10.6392 2.62179 9.59725 2.52313 8.5H4.97688ZM5.98125 8.5H7.5V13.4769C6.37908 13.3753 5.3167 12.9308 4.4575 12.2037C5.34593 11.1624 5.87963 9.86509 5.98125 8.5ZM8.5 8.5H10.0188C10.1204 9.86509 10.6541 11.1624 11.5425 12.2037C10.6833 12.9308 9.62092 13.3753 8.5 13.4769V8.5ZM11.0231 8.5H13.4769C13.3782 9.59725 12.9506 10.6392 12.25 11.4894C11.5483 10.6399 11.1205 9.59757 11.0231 8.5ZM11.0231 7.5C11.1205 6.40243 11.5483 5.36015 12.25 4.51062C12.9506 5.36084 13.3782 6.40275 13.4769 7.5H11.0231Z" fill="#CECECE"/>
</svg>
