<svg width="28" height="28" viewBox="0 0 28 28" fill="none" xmlns="http://www.w3.org/2000/svg">
<path d="M13.9998 20.6667C14.3776 20.6667 14.6945 20.5387 14.9505 20.2827C15.2065 20.0267 15.3341 19.7102 15.3332 19.3333C15.3323 18.9564 15.2043 18.64 14.9492 18.384C14.6941 18.128 14.3776 18 13.9998 18C13.6221 18 13.3056 18.128 13.0505 18.384C12.7954 18.64 12.6674 18.9564 12.6665 19.3333C12.6656 19.7102 12.7936 20.0271 13.0505 20.284C13.3074 20.5409 13.6238 20.6684 13.9998 20.6667ZM12.6665 15.3333H15.3332V7.33333H12.6665V15.3333ZM13.9998 27.3333C12.1554 27.3333 10.4221 26.9831 8.79984 26.2827C7.17762 25.5822 5.76651 24.6324 4.56651 23.4333C3.36651 22.2342 2.41673 20.8231 1.71717 19.2C1.01762 17.5769 0.667394 15.8436 0.666506 14C0.665617 12.1564 1.01584 10.4231 1.71717 8.8C2.41851 7.17689 3.36828 5.76578 4.56651 4.56667C5.76473 3.36756 7.17584 2.41778 8.79984 1.71733C10.4238 1.01689 12.1572 0.666666 13.9998 0.666666C15.8425 0.666666 17.5758 1.01689 19.1998 1.71733C20.8238 2.41778 22.235 3.36756 23.4332 4.56667C24.6314 5.76578 25.5816 7.17689 26.2838 8.8C26.9861 10.4231 27.3358 12.1564 27.3332 14C27.3305 15.8436 26.9803 17.5769 26.2825 19.2C25.5847 20.8231 24.635 22.2342 23.4332 23.4333C22.2314 24.6324 20.8203 25.5827 19.1998 26.284C17.5794 26.9853 15.8461 27.3351 13.9998 27.3333Z" fill="#F2708A"/>
</svg>
