<svg width="16" height="16" viewBox="0 0 16 16" fill="none" xmlns="http://www.w3.org/2000/svg">
<path d="M5.59333 14L2 10.4067C2 11.1333 2.02667 11.8067 2.13333 12.42C2.23333 13.0333 2.33333 13.4 2.47333 13.5267C2.6 13.6667 2.96 13.7667 3.56667 13.8733C4.17333 13.98 4.84667 14 5.59333 14ZM10.3333 6.59333L6.59333 10.3333L5.66667 9.40667L9.40667 5.66667L10.3333 6.59333ZM2.19333 8.72L7.28 13.8067C9.13333 13.4733 10.6 12.7667 11.6867 11.6867C12.7667 10.6 13.4733 9.13333 13.8067 7.28L8.72 2.19333C6.86667 2.52667 5.4 3.23333 4.31333 4.31333C3.22667 5.39333 2.52667 6.86667 2.19333 8.72ZM10.4067 2L14 5.59333C14 4.86667 13.9733 4.19333 13.8733 3.58C13.7667 2.96667 13.6667 2.6 13.5267 2.47333C13.4 2.33333 13.04 2.23333 12.4333 2.13333C11.8267 2.03333 11.1533 2 10.4067 2Z" fill="#CECECE"/>
</svg>
