<svg width="16" height="16" viewBox="0 0 16 16" fill="none" xmlns="http://www.w3.org/2000/svg">
<g clip-path="url(#clip0_17_1473)">
<path d="M1.27467 0L2.08267 1.64933V14.3513L1.27467 16H11.0947L11.986 12.8787H5.55334V0H1.27467ZM8.00001 1.01067C7.39134 1.01067 6.80134 1.08533 6.23467 1.21867V2.37867C6.80897 2.2158 7.40306 2.13324 8.00001 2.13333C11.5113 2.13333 14.3573 4.92267 14.3573 8.36533C14.3575 9.85939 13.8122 11.3021 12.824 12.4227L12.642 13.0587L12.2407 14.4667C14.2087 13.138 15.5007 10.91 15.5007 8.38533C15.5 4.312 12.142 1.01067 8.00001 1.01067ZM8.00001 2.79267C7.38401 2.79267 6.79067 2.89133 6.23467 3.06867V12.2107H12.1127C13.1197 11.1839 13.6845 9.80352 13.686 8.36533C13.686 5.28733 11.1407 2.79267 8.00001 2.79267ZM1.40267 4.87467C0.809182 5.94902 0.498565 7.15662 0.500005 8.384C0.500005 9.65467 0.828005 10.8507 1.40334 11.8947L1.40267 4.87467Z" fill="#CECECE"/>
</g>
<defs>
<clipPath id="clip0_17_1473">
<rect width="16" height="16" fill="white"/>
</clipPath>
</defs>
</svg>
