<svg width="16" height="16" viewBox="0 0 16 16" fill="none" xmlns="http://www.w3.org/2000/svg">
<path d="M10.5 8H11.5V9H10.5V8ZM4.5 8H8.5V9H4.5V8ZM10.5 6H11.5V7H10.5V6ZM4.5 6H8.5V7H4.5V6ZM4.5 4H11.5V5H4.5V4Z" fill="#CECECE"/>
<path d="M12.5 1H3.5C3.23478 1 2.98043 1.10536 2.79289 1.29289C2.60536 1.48043 2.5 1.73478 2.5 2V14.5C2.5 14.6326 2.55268 14.7598 2.64645 14.8536C2.74021 14.9473 2.86739 15 3 15H3.5C3.57762 15 3.65418 14.9819 3.72361 14.9472C3.79303 14.9125 3.85343 14.8621 3.9 14.8L5 13.3335L6.1 14.8C6.14854 14.8591 6.2096 14.9068 6.27876 14.9395C6.34793 14.9722 6.42349 14.9892 6.5 14.9892C6.57651 14.9892 6.65207 14.9722 6.72124 14.9395C6.7904 14.9068 6.85146 14.8591 6.9 14.8L8 13.3335L9.1 14.8C9.14854 14.8591 9.2096 14.9068 9.27876 14.9395C9.34793 14.9722 9.42349 14.9892 9.5 14.9892C9.57651 14.9892 9.65207 14.9722 9.72124 14.9395C9.7904 14.9068 9.85146 14.8591 9.9 14.8L11 13.3335L12.1 14.8C12.1466 14.8621 12.207 14.9125 12.2764 14.9472C12.3458 14.9819 12.4224 15 12.5 15H13C13.1326 15 13.2598 14.9473 13.3536 14.8536C13.4473 14.7598 13.5 14.6326 13.5 14.5V2C13.5 1.73478 13.3946 1.48043 13.2071 1.29289C13.0196 1.10536 12.7652 1 12.5 1ZM12.5 13.6665L11.4 12.2C11.3515 12.1409 11.2904 12.0932 11.2212 12.0605C11.1521 12.0278 11.0765 12.0108 11 12.0108C10.9235 12.0108 10.8479 12.0278 10.7788 12.0605C10.7096 12.0932 10.6485 12.1409 10.6 12.2L9.5 13.6665L8.4 12.2C8.35146 12.1409 8.2904 12.0932 8.22124 12.0605C8.15207 12.0278 8.07651 12.0108 8 12.0108C7.92349 12.0108 7.84793 12.0278 7.77876 12.0605C7.7096 12.0932 7.64854 12.1409 7.6 12.2L6.5 13.6665L5.4 12.2C5.35146 12.1409 5.2904 12.0932 5.22124 12.0605C5.15207 12.0278 5.07651 12.0108 5 12.0108C4.92349 12.0108 4.84793 12.0278 4.77876 12.0605C4.7096 12.0932 4.64854 12.1409 4.6 12.2L3.5 13.6665V2H12.5V13.6665Z" fill="#CECECE"/>
</svg>
