<svg width="16" height="16" viewBox="0 0 16 16" fill="none" xmlns="http://www.w3.org/2000/svg">
<path d="M13.7047 13.6025C15.1756 12.1087 16 10.0964 16 8C16 5.90359 15.1756 3.89126 13.7047 2.39746C13.6751 2.35925 13.6408 2.32496 13.6026 2.29541C12.1088 0.824471 10.0965 0 8 0C5.90355 0 3.89119 0.824471 2.39738 2.29541C2.35917 2.32496 2.32488 2.35925 2.29533 2.39746C0.824441 3.89126 0 5.90359 0 8C0 10.0964 0.824441 12.1087 2.29533 13.6025C2.32489 13.6408 2.35919 13.6751 2.39742 13.7046C3.89122 15.1755 5.90356 16 8 16C10.0964 16 12.1088 15.1755 13.6026 13.7046C13.6408 13.6751 13.6751 13.6408 13.7047 13.6025ZM1.25905 8.61539H3.11674C3.22661 9.49086 3.57095 10.3204 4.11336 11.0163L2.80037 12.3293C1.92062 11.277 1.3829 9.98136 1.25905 8.61539ZM2.80037 3.67071L4.11336 4.98368C3.57095 5.67961 3.22661 6.50914 3.11674 7.38462H1.25905C1.3829 6.01864 1.92062 4.72298 2.80037 3.67071ZM14.7409 7.38462H12.8833C12.7734 6.50914 12.4291 5.67961 11.8866 4.98368L13.1996 3.67071C14.0794 4.72298 14.6171 6.01864 14.7409 7.38462ZM11.0163 4.11334C10.3204 3.57094 9.49085 3.22661 8.61539 3.11676V1.25903C9.98136 1.3829 11.277 1.92062 12.3293 2.80037L11.0163 4.11334ZM7.38462 3.11676C6.50915 3.22661 5.67962 3.57094 4.9837 4.11334L3.67071 2.80037C4.72298 1.92062 6.01864 1.3829 7.38462 1.25903V3.11676ZM4.9837 11.8867C5.67962 12.4291 6.50915 12.7734 7.38462 12.8832V14.741C6.01864 14.6171 4.72298 14.0794 3.67071 13.1996L4.9837 11.8867ZM8.61539 12.8832C9.49085 12.7734 10.3204 12.4291 11.0163 11.8867L12.3293 13.1996C11.277 14.0794 9.98136 14.6171 8.61539 14.741V12.8832ZM11.8866 11.0163C12.4291 10.3204 12.7734 9.49086 12.8833 8.61539H14.7409C14.6171 9.98136 14.0794 11.277 13.1996 12.3293L11.8866 11.0163Z" fill="#CECECE"/>
</svg>
