<svg width="16" height="16" viewBox="0 0 16 16" fill="none" xmlns="http://www.w3.org/2000/svg">
<path d="M6.04002 1.28668C4.78002 1.28001 3.55335 2.49335 4.11335 4.00001H2.00002C1.6464 4.00001 1.30726 4.14049 1.05721 4.39054C0.807163 4.64059 0.666687 4.97972 0.666687 5.33335V6.66668C0.666687 6.84349 0.736925 7.01306 0.861949 7.13808C0.986973 7.26311 1.15654 7.33335 1.33335 7.33335H7.33335V5.33335H8.66669V7.33335H14.6667C14.8435 7.33335 15.0131 7.26311 15.1381 7.13808C15.2631 7.01306 15.3334 6.84349 15.3334 6.66668V5.33335C15.3334 4.97972 15.1929 4.64059 14.9428 4.39054C14.6928 4.14049 14.3536 4.00001 14 4.00001H11.8867C12.6667 1.82001 9.73335 0.280012 8.38002 2.16001L8.00002 2.66668L7.62002 2.14668C7.20002 1.55335 6.62002 1.29335 6.04002 1.28668ZM6.00002 2.66668C6.59335 2.66668 6.89335 3.38668 6.47335 3.80668C6.05335 4.22668 5.33335 3.92668 5.33335 3.33335C5.33335 3.15653 5.40359 2.98697 5.52862 2.86194C5.65364 2.73692 5.82321 2.66668 6.00002 2.66668ZM10 2.66668C10.5934 2.66668 10.8934 3.38668 10.4734 3.80668C10.0534 4.22668 9.33335 3.92668 9.33335 3.33335C9.33335 3.15653 9.40359 2.98697 9.52862 2.86194C9.65364 2.73692 9.82321 2.66668 10 2.66668ZM1.33335 8.00001V13.3333C1.33335 13.687 1.47383 14.0261 1.72388 14.2762C1.97393 14.5262 2.31307 14.6667 2.66669 14.6667H13.3334C13.687 14.6667 14.0261 14.5262 14.2762 14.2762C14.5262 14.0261 14.6667 13.687 14.6667 13.3333V8.00001H8.66669V13.3333H7.33335V8.00001H1.33335Z" fill="#CECECE"/>
</svg>
