<svg width="16" height="16" viewBox="0 0 16 16" fill="none" xmlns="http://www.w3.org/2000/svg">
<path d="M8 1.5C6.71442 1.5 5.45772 1.88122 4.3888 2.59545C3.31988 3.30968 2.48676 4.32484 1.99479 5.51256C1.50282 6.70028 1.37409 8.00721 1.6249 9.26809C1.8757 10.529 2.49477 11.6872 3.40381 12.5962C4.31285 13.5052 5.47104 14.1243 6.73192 14.3751C7.99279 14.6259 9.29973 14.4972 10.4874 14.0052C11.6752 13.5132 12.6903 12.6801 13.4046 11.6112C14.1188 10.5423 14.5 9.28558 14.5 8C14.4982 6.27665 13.8128 4.62441 12.5942 3.40582C11.3756 2.18722 9.72335 1.50182 8 1.5ZM13.1088 10.0363C12.2556 10.6211 11.2547 10.9535 10.2212 10.9953C9.18764 11.0371 8.16324 10.7866 7.26563 10.2725L8.28875 8.5H13.4763C13.429 9.02721 13.3052 9.54473 13.1088 10.0363ZM5.695 3.00688C6.17519 2.78451 6.68507 2.63293 7.20875 2.55687C8.14178 3.00356 8.92992 3.70431 9.48269 4.57868C10.0354 5.45304 10.3304 6.46557 10.3338 7.5H8.28875L5.695 3.00688ZM13.4769 7.5H11.3356C11.3325 6.57279 11.1314 5.65693 10.7457 4.81372C10.3601 3.97051 9.79876 3.21939 9.09938 2.61063C10.2568 2.84866 11.307 3.45237 12.0952 4.33272C12.8834 5.21306 13.3678 6.32342 13.4769 7.5ZM4.82938 3.50813L5.89938 5.36125C5.09792 5.82736 4.40528 6.45931 3.86785 7.2148C3.33042 7.97028 2.96059 8.83187 2.78313 9.74187C2.40875 8.6209 2.40563 7.40912 2.77422 6.28623C3.14281 5.16334 3.86349 4.18915 4.82938 3.50813ZM3.68125 11.4019C3.60224 10.3711 3.81533 9.33894 4.29609 8.42374C4.77685 7.50854 5.50581 6.74736 6.39938 6.2275L7.4225 8L4.82938 12.4919C4.39644 12.1854 4.00978 11.8183 3.68125 11.4019ZM8 13.5C7.20394 13.5008 6.41729 13.3278 5.695 12.9931L6.76563 11.1388C7.56918 11.5989 8.4616 11.8824 9.38338 11.9705C10.3052 12.0585 11.2351 11.9491 12.1113 11.6494C11.5961 12.2314 10.9632 12.6974 10.2545 13.0164C9.54571 13.3355 8.77726 13.5003 8 13.5Z" fill="#CECECE"/>
</svg>
