<svg width="14" height="14" viewBox="0 0 14 14" fill="none" xmlns="http://www.w3.org/2000/svg">
<path d="M14 8C13.9997 8.61925 13.8352 9.22735 13.5232 9.76225C13.2112 10.2971 12.7628 10.7397 12.2239 11.0447C11.685 11.3497 11.0748 11.5063 10.4556 11.4984C9.83637 11.4906 9.23034 11.3186 8.69933 11H8.42183L8.9787 12.8562C9.00111 12.9309 9.00576 13.0098 8.99227 13.0865C8.97878 13.1633 8.94754 13.2358 8.90102 13.2984C8.85451 13.3609 8.79402 13.4117 8.72439 13.4467C8.65475 13.4817 8.57789 13.5 8.49995 13.5H5.49995C5.42201 13.5 5.34515 13.4817 5.27552 13.4467C5.20588 13.4117 5.14539 13.3609 5.09888 13.2984C5.05237 13.2358 5.02112 13.1633 5.00764 13.0865C4.99415 13.0098 4.99879 12.9309 5.0212 12.8562L5.57808 11H5.30058C4.83812 11.2779 4.31768 11.4451 3.7799 11.4886C3.24212 11.5321 2.70157 11.4507 2.20047 11.2507C1.69937 11.0507 1.25129 10.7376 0.891224 10.3358C0.531161 9.93394 0.268868 9.45433 0.124831 8.93438C-0.0192055 8.41442 -0.0410853 7.86821 0.0609009 7.33841C0.162887 6.8086 0.385978 6.30954 0.712747 5.88022C1.03952 5.4509 1.46112 5.10293 1.94461 4.8635C2.42811 4.62407 2.96042 4.49967 3.49995 4.5H3.64558C3.49 3.97764 3.45856 3.42616 3.55377 2.8895C3.64898 2.35285 3.86821 1.84584 4.19399 1.40888C4.51978 0.971924 4.94311 0.617089 5.43026 0.372648C5.91741 0.128207 6.45491 0.000915527 6.99995 0.000915527C7.54499 0.000915527 8.0825 0.128207 8.56965 0.372648C9.0568 0.617089 9.48013 0.971924 9.80591 1.40888C10.1317 1.84584 10.3509 2.35285 10.4461 2.8895C10.5413 3.42616 10.5099 3.97764 10.3543 4.5H10.5C11.4279 4.50099 12.3176 4.87006 12.9737 5.52622C13.6299 6.18238 13.999 7.07205 14 8Z" fill="#CECECE"/>
</svg>
