<svg width="16" height="16" viewBox="0 0 16 16" fill="none" xmlns="http://www.w3.org/2000/svg">
<path d="M8 1.5C6.71442 1.5 5.45772 1.88122 4.3888 2.59545C3.31988 3.30968 2.48676 4.32484 1.99479 5.51256C1.50282 6.70028 1.37409 8.00721 1.6249 9.26809C1.8757 10.529 2.49477 11.6872 3.40381 12.5962C4.31285 13.5052 5.47104 14.1243 6.73192 14.3751C7.99279 14.6259 9.29973 14.4972 10.4874 14.0052C11.6752 13.5132 12.6903 12.6801 13.4046 11.6112C14.1188 10.5423 14.5 9.28558 14.5 8C14.4982 6.27665 13.8128 4.62441 12.5942 3.40582C11.3756 2.18722 9.72335 1.50182 8 1.5ZM4.50563 12.2444C4.55688 12.1819 4.60813 12.1237 4.65688 12.0625C4.69792 12.0112 4.72844 11.9522 4.74671 11.8891C4.76498 11.826 4.77063 11.7599 4.76335 11.6945C4.75606 11.6292 4.73598 11.566 4.70426 11.5084C4.67253 11.4508 4.62978 11.4001 4.57844 11.3591C4.5271 11.318 4.46818 11.2875 4.40505 11.2692C4.34191 11.251 4.2758 11.2453 4.21048 11.2526C4.14516 11.2599 4.08191 11.28 4.02435 11.3117C3.96679 11.3434 3.91604 11.3862 3.875 11.4375L3.79125 11.5387C2.9562 10.5487 2.49817 9.2952 2.49817 8C2.49817 6.7048 2.9562 5.45132 3.79125 4.46125L3.875 4.5625C3.91604 4.61384 3.96679 4.65659 4.02435 4.68832C4.08191 4.72004 4.14516 4.74012 4.21048 4.74741C4.2758 4.75469 4.34191 4.74904 4.40505 4.73077C4.46818 4.7125 4.5271 4.68198 4.57844 4.64094C4.62978 4.5999 4.67253 4.54915 4.70426 4.49159C4.73598 4.43403 4.75606 4.37078 4.76335 4.30546C4.77063 4.24014 4.76498 4.17403 4.74671 4.11089C4.72844 4.04776 4.69792 3.98884 4.65688 3.9375C4.60813 3.875 4.55688 3.8125 4.50563 3.75563C5.48922 2.94391 6.72472 2.49994 8 2.49994C9.27528 2.49994 10.5108 2.94391 11.4944 3.75563C11.4431 3.81813 11.3919 3.87562 11.3431 3.9375C11.3021 3.98884 11.2716 4.04776 11.2533 4.11089C11.235 4.17403 11.2294 4.24014 11.2367 4.30546C11.2439 4.37078 11.264 4.43403 11.2957 4.49159C11.3275 4.54915 11.3702 4.5999 11.4216 4.64094C11.4729 4.68198 11.5318 4.7125 11.595 4.73077C11.6581 4.74904 11.7242 4.75469 11.7895 4.74741C11.8548 4.74012 11.9181 4.72004 11.9757 4.68832C12.0332 4.65659 12.084 4.61384 12.125 4.5625L12.2088 4.46125C13.0438 5.45132 13.5018 6.7048 13.5018 8C13.5018 9.2952 13.0438 10.5487 12.2088 11.5387L12.125 11.4375C12.0848 11.384 12.0342 11.339 11.9763 11.3054C11.9184 11.2718 11.8543 11.2501 11.7878 11.2417C11.7214 11.2334 11.6539 11.2384 11.5895 11.2566C11.525 11.2748 11.4649 11.3057 11.4126 11.3476C11.3603 11.3895 11.317 11.4415 11.2852 11.5004C11.2534 11.5593 11.2338 11.6241 11.2275 11.6908C11.2212 11.7574 11.2283 11.8247 11.2485 11.8886C11.2687 11.9524 11.3015 12.0116 11.345 12.0625C11.3938 12.125 11.445 12.1844 11.4963 12.2444C10.5127 13.0561 9.27716 13.5001 8.00188 13.5001C6.7266 13.5001 5.4911 13.0561 4.5075 12.2444H4.50563ZM5.99313 9.0825C5.93101 9.45131 5.83734 9.8141 5.71313 10.1669C5.66887 10.2919 5.57674 10.3943 5.45701 10.4514C5.33728 10.5086 5.19976 10.5158 5.07469 10.4716C4.94962 10.4273 4.84726 10.3352 4.79012 10.2154C4.73298 10.0957 4.72574 9.95819 4.77 9.83313C4.8754 9.53538 4.95466 9.22901 5.00688 8.9175C5.01717 8.85226 5.04029 8.7897 5.0749 8.73344C5.10951 8.67718 5.15492 8.62834 5.20852 8.58973C5.26211 8.55113 5.32282 8.52352 5.38714 8.50851C5.45147 8.4935 5.51813 8.49138 5.58327 8.50228C5.64842 8.51318 5.71076 8.53688 5.76669 8.57201C5.82263 8.60714 5.87105 8.653 5.90915 8.70695C5.94726 8.7609 5.97431 8.82186 5.98872 8.88632C6.00313 8.95078 6.00463 9.01746 5.99313 9.0825ZM5.99313 6.9175C6.015 7.04828 5.98403 7.1824 5.90702 7.29035C5.83002 7.3983 5.71328 7.47124 5.5825 7.49312C5.55522 7.49756 5.52764 7.49986 5.5 7.5C5.38181 7.49985 5.26749 7.45783 5.17733 7.3814C5.08717 7.30497 5.027 7.19907 5.0075 7.0825C4.95529 6.77099 4.87603 6.46462 4.77063 6.16687C4.72637 6.04181 4.73361 5.90428 4.79075 5.78455C4.84789 5.66482 4.95025 5.5727 5.07532 5.52844C5.20038 5.48418 5.33791 5.49142 5.45764 5.54856C5.57737 5.6057 5.66949 5.70806 5.71375 5.83313C5.83775 6.18592 5.93122 6.54871 5.99313 6.9175ZM10.925 10.4712C10.8 10.5155 10.6626 10.5083 10.5429 10.4512C10.4232 10.3941 10.3312 10.2918 10.2869 10.1669C10.1627 9.8141 10.069 9.45131 10.0069 9.0825C9.99538 9.01746 9.99687 8.95078 10.0113 8.88632C10.0257 8.82186 10.0527 8.7609 10.0909 8.70695C10.129 8.653 10.1774 8.60714 10.2333 8.57201C10.2892 8.53688 10.3516 8.51318 10.4167 8.50228C10.4819 8.49138 10.5485 8.4935 10.6129 8.50851C10.6772 8.52352 10.7379 8.55113 10.7915 8.58973C10.8451 8.62834 10.8905 8.67718 10.9251 8.73344C10.9597 8.7897 10.9828 8.85226 10.9931 8.9175C11.0453 9.22901 11.1246 9.53538 11.23 9.83313C11.2519 9.89505 11.2614 9.96068 11.2579 10.0263C11.2544 10.0919 11.238 10.1561 11.2097 10.2154C11.1814 10.2746 11.1417 10.3277 11.0928 10.3716C11.044 10.4155 10.9869 10.4494 10.925 10.4712ZM10.0069 6.9175C10.069 6.54869 10.1627 6.1859 10.2869 5.83313C10.3311 5.70806 10.4233 5.6057 10.543 5.54856C10.6627 5.49142 10.8002 5.48418 10.9253 5.52844C11.0504 5.5727 11.1527 5.66482 11.2099 5.78455C11.267 5.90428 11.2743 6.04181 11.23 6.16687C11.1246 6.46462 11.0453 6.77099 10.9931 7.0825C10.9736 7.19918 10.9133 7.30516 10.8231 7.3816C10.7328 7.45804 10.6183 7.49999 10.5 7.5C10.4722 7.49989 10.4444 7.49759 10.4169 7.49312C10.2862 7.47109 10.1696 7.39809 10.0928 7.29016C10.0159 7.18223 9.98499 7.04819 10.0069 6.9175Z" fill="#CECECE"/>
</svg>
