<svg width="12" height="16" viewBox="0 0 12 16" fill="none" xmlns="http://www.w3.org/2000/svg">
<path d="M10.6667 0H4C3.26667 0 2.66667 0.6 2.66667 1.33333V12C2.66667 12.7333 3.26667 13.3333 4 13.3333H10.6667C11.4 13.3333 12 12.7333 12 12V1.33333C12 0.6 11.4 0 10.6667 0ZM10.6667 12H4V1.33333H10.6667V12ZM0 2.66667V14.6667C0 15.4 0.6 16 1.33333 16H9.33333V14.6667H1.33333V2.66667H0ZM6.13333 4.66667C5.33333 4.66667 4.66667 5.33333 4.66667 6.13333C4.66667 7.13333 5.6 7.93333 6.93333 9.2L7.33333 9.53333L7.73333 9.2C9.06667 7.93333 10 7.13333 10 6.13333C10 5.26667 9.33333 4.66667 8.53333 4.66667C8.06667 4.66667 7.6 4.86667 7.33333 5.2C7.06667 4.86667 6.6 4.66667 6.13333 4.66667Z" fill="#CECECE"/>
</svg>
