<svg width="32" height="32" viewBox="0 0 32 32" fill="none" xmlns="http://www.w3.org/2000/svg">
<path d="M26.0401 8.54666C26.4254 8.91096 26.6503 9.41337 26.6653 9.94344C26.6803 10.4735 26.4842 10.9878 26.1201 11.3733L14.7867 23.3733C14.6031 23.5675 14.3823 23.7228 14.1376 23.8302C13.8929 23.9376 13.6291 23.9949 13.3619 23.9986C13.0946 24.0023 12.8294 23.9524 12.5817 23.8519C12.3341 23.7514 12.1091 23.6023 11.9201 23.4133L5.92008 17.4133C5.5668 17.0342 5.37447 16.5327 5.38361 16.0146C5.39275 15.4965 5.60265 15.0021 5.96909 14.6357C6.33552 14.2692 6.82988 14.0593 7.34802 14.0502C7.86616 14.0411 8.36761 14.2334 8.74675 14.5867L13.2934 19.1307L23.2134 8.62666C23.5777 8.24132 24.0801 8.01643 24.6102 8.00143C25.1402 7.98643 25.6546 8.18254 26.0401 8.54666Z" fill="#6BDD0F"/>
</svg>
