<svg width="16" height="16" viewBox="0 0 16 16" fill="none" xmlns="http://www.w3.org/2000/svg">
<path d="M9.56001 11.8467L10.5 10.9067L13.3333 13.72L12.3733 14.6667L9.56001 11.8467ZM12.3333 1.33333C12.9522 1.33333 13.5457 1.57917 13.9833 2.01675C14.4208 2.45434 14.6667 3.04783 14.6667 3.66667C14.6667 4.28551 14.4208 4.879 13.9833 5.31658C13.5457 5.75417 12.9522 6 12.3333 6C11.7145 6 11.121 5.75417 10.6834 5.31658C10.2458 4.879 10 4.28551 10 3.66667C10 3.04783 10.2458 2.45434 10.6834 2.01675C11.121 1.57917 11.7145 1.33333 12.3333 1.33333ZM1.49334 4.74L3.38001 2.85333C3.50718 2.72834 3.67836 2.6583 3.85667 2.6583C4.03499 2.6583 4.20617 2.72834 4.33334 2.85333L9.98001 8.51333C10.24 8.77333 10.24 9.19333 9.98001 9.45333L8.09334 11.3333C8.03183 11.3966 7.95824 11.447 7.87694 11.4813C7.79564 11.5157 7.70827 11.5334 7.62001 11.5334C7.53174 11.5334 7.44437 11.5157 7.36307 11.4813C7.28177 11.447 7.20819 11.3966 7.14667 11.3333L1.49334 5.68667C1.23334 5.42 1.23334 5 1.49334 4.74Z" fill="#CECECE"/>
</svg>
