<svg width="16" height="16" viewBox="0 0 16 16" fill="none" xmlns="http://www.w3.org/2000/svg">
<path d="M14 9.5H8.18125L2.38125 2.67625C2.29539 2.57514 2.17287 2.51227 2.04066 2.50149C1.90845 2.49071 1.77736 2.53289 1.67625 2.61875C1.57514 2.70461 1.51227 2.82713 1.50149 2.95934C1.49071 3.09155 1.53289 3.22264 1.61875 3.32375L9.96937 13.1475C10.0632 13.258 10.18 13.3467 10.3115 13.4076C10.4431 13.4684 10.5863 13.5 10.7312 13.5H14C14.2652 13.5 14.5196 13.3946 14.7071 13.2071C14.8946 13.0196 15 12.7652 15 12.5V10.5C15 10.2348 14.8946 9.98043 14.7071 9.79289C14.5196 9.60536 14.2652 9.5 14 9.5ZM9.03125 10.5H12V12.5H10.7312L9.03125 10.5ZM14 12.5H13V10.5H14V12.5ZM7.01125 11.2219C6.91027 11.1361 6.77936 11.0939 6.64729 11.1046C6.51522 11.1152 6.39279 11.1779 6.30688 11.2787L5.26875 12.5H4V10.5H5.325C5.45761 10.5 5.58479 10.4473 5.67855 10.3536C5.77232 10.2598 5.825 10.1326 5.825 10C5.825 9.86739 5.77232 9.74021 5.67855 9.64645C5.58479 9.55268 5.45761 9.5 5.325 9.5H2C1.73478 9.5 1.48043 9.60536 1.29289 9.79289C1.10536 9.98043 1 10.2348 1 10.5V12.5C1 12.7652 1.10536 13.0196 1.29289 13.2071C1.48043 13.3946 1.73478 13.5 2 13.5H5.26875C5.4137 13.5 5.55691 13.4684 5.68847 13.4076C5.82002 13.3467 5.93677 13.258 6.03062 13.1475L7.06875 11.9269C7.11129 11.8768 7.14354 11.8189 7.16367 11.7563C7.1838 11.6938 7.19142 11.6279 7.18608 11.5625C7.18074 11.497 7.16255 11.4332 7.13255 11.3748C7.10255 11.3163 7.06134 11.2644 7.01125 11.2219ZM2 10.5H3V12.5H2V10.5ZM9.36875 7.67625L13.6187 2.67625C13.7046 2.57514 13.8271 2.51227 13.9593 2.50149C14.0916 2.49071 14.2226 2.53289 14.3237 2.61875C14.4249 2.70461 14.4877 2.82713 14.4985 2.95934C14.5093 3.09155 14.4671 3.22264 14.3813 3.32375L10.1313 8.32375C10.0887 8.37382 10.0368 8.41502 9.97834 8.445C9.9199 8.47499 9.85612 8.49317 9.79066 8.49851C9.65845 8.50929 9.52736 8.46711 9.42625 8.38125C9.32514 8.29539 9.26227 8.17287 9.25149 8.04066C9.24071 7.90844 9.28289 7.77736 9.36875 7.67625Z" fill="#CECECE"/>
</svg>
