<svg width="93" height="30" viewBox="0 0 93 30" fill="none" xmlns="http://www.w3.org/2000/svg">
<g clip-path="url(#clip0_16_203)">
<path d="M47.8549 9.55229C47.8021 13.7147 51.5644 16.0373 54.3985 17.4184C57.3103 18.8353 58.2884 19.744 58.2768 21.0112C58.2551 22.9504 55.9542 23.8063 53.801 23.8395C50.0445 23.8977 47.8603 22.8253 46.1239 22.0142L44.7707 28.3464C46.5129 29.1492 49.7388 29.8493 53.0839 29.88C60.9363 29.88 66.0736 26.0039 66.1014 19.9941C66.1321 12.3669 55.5515 11.9447 55.6238 8.53554C55.6488 7.50181 56.6351 6.39867 58.7966 6.11819C59.8665 5.97651 62.8198 5.86807 66.1683 7.41L67.4825 1.28349C65.6818 0.627832 63.3674 0 60.486 0C53.0951 0 47.8968 3.92892 47.8549 9.55229ZM80.1107 0.52771C78.6768 0.52771 77.4685 1.3641 76.9292 2.64759L65.7125 29.43H73.5591L75.1206 25.1147H84.709L85.6148 29.43H92.5307L86.4956 0.52771H80.1107ZM81.2084 8.3353L83.4729 19.1884H77.2712L81.2084 8.3353ZM38.3413 0.528072L32.1562 29.4296H39.6335L45.8156 0.527349L38.3413 0.528072ZM27.28 0.528072L19.4973 20.1998L16.3491 3.47313C15.9797 1.6059 14.5209 0.52771 12.9009 0.52771H0.178757L0.000564575 1.36699C2.61237 1.93373 5.57984 2.84783 7.37767 3.8259C8.47791 4.42337 8.79165 4.94566 9.1531 6.36542L15.1159 29.43H23.0174L35.1316 0.52771L27.28 0.528072Z" fill="url(#paint0_linear_16_203)"/>
</g>
<defs>
<linearGradient id="paint0_linear_16_203" x1="4253.98" y1="89.8193" x2="4340.47" y2="-2978.9" gradientUnits="userSpaceOnUse">
<stop stop-color="white"/>
<stop offset="1" stop-color="#254AA5"/>
</linearGradient>
<clipPath id="clip0_16_203">
<rect width="92.5312" height="30" fill="white"/>
</clipPath>
</defs>
</svg>
