<svg width="88" height="88" viewBox="0 0 88 88" fill="none" xmlns="http://www.w3.org/2000/svg">
<g clip-path="url(#clip0_16_196)">
<path d="M24.5777 63.7523L26.84 58.2523L22.4217 48.004H25.0763L28.072 55.264L30.9173 48.004H33.5243L27.1003 63.7523H24.5777ZM15.4403 59.004C12.8443 59.004 10.142 56.9177 10.142 53.4013C10.142 49.8263 12.7527 47.7877 15.477 47.7877C16.896 47.7877 18.172 48.3743 18.9457 49.2947V48.004H21.428V58.784H18.9457V57.3833C18.5196 57.8982 17.9835 58.311 17.3769 58.5914C16.7703 58.8719 16.1086 59.0129 15.4403 59.004ZM0.0183333 58.784V45.342H4.631C7.414 45.342 9.471 47.4723 9.471 50.127C9.471 52.7963 7.41033 54.9377 4.61267 54.9377H2.53V58.7877L0.0183333 58.784ZM15.84 56.7233C17.6843 56.7233 19.0667 55.231 19.0667 53.372C19.0667 51.5497 17.6843 50.05 15.84 50.05C15.4065 50.0489 14.9772 50.1346 14.5774 50.302C14.1775 50.4694 13.8152 50.7151 13.5118 51.0247C13.2083 51.3342 12.9699 51.7014 12.8106 52.1045C12.6513 52.5077 12.5742 52.9386 12.584 53.372C12.584 55.2493 13.9993 56.7233 15.84 56.7233ZM2.53 52.6093H4.43667C5.93267 52.6093 6.952 51.5093 6.952 50.127C6.95823 49.7977 6.89715 49.4705 6.77252 49.1656C6.64788 48.8607 6.4623 48.5844 6.22716 48.3537C5.99202 48.1231 5.71225 47.9428 5.405 47.824C5.09776 47.7053 4.7695 47.6505 4.44033 47.663H2.53V52.6093ZM4.57233 37.7117C2.211 37.7117 0 36.8683 0 34.0633V33.0917H3.37333L3.38067 34.3127C3.38067 34.9983 3.85733 35.4493 4.642 35.4493C5.478 35.4493 5.76033 35.0203 5.863 34.5987C5.94712 34.2955 5.94075 33.9743 5.84467 33.6747C5.19567 32.0467 0.726 31.306 0.179667 28.7357C0.0609749 28.1768 0.0522571 27.6002 0.154 27.038C0.484 24.9847 2.31 24.2513 4.54667 24.2513C6.325 24.2513 8.78533 24.6693 8.78533 27.4083V28.2957H5.654V27.5147C5.654 26.829 5.214 26.378 4.48067 26.378C3.69233 26.378 3.421 26.8253 3.333 27.2287C3.28527 27.4464 3.28777 27.6721 3.34033 27.8887C3.69967 29.359 8.47367 30.1437 9.00533 32.7763C9.05667 33.0403 9.16667 33.7517 9.01267 34.837C8.71567 36.938 6.84933 37.7117 4.576 37.7117H4.57233ZM45.4703 37.6457C43.131 37.6457 40.9457 36.8133 40.9457 34.0377V33.0733H44.286V34.276C44.286 34.9543 44.759 35.4127 45.5363 35.4127C46.3687 35.4127 46.6473 34.9837 46.75 34.5693C46.8327 34.2684 46.8263 33.95 46.7317 33.6527C46.09 32.0393 41.6643 31.3023 41.1253 28.754C41.0078 28.2013 40.9979 27.6311 41.096 27.0747C41.426 25.0433 43.241 24.3137 45.452 24.3137C47.212 24.3137 49.643 24.7353 49.643 27.4487V28.3287H46.541V27.5513C46.541 26.873 46.1157 26.4257 45.386 26.4257C44.6087 26.4257 44.3263 26.8657 44.2383 27.269C44.1964 27.4828 44.2027 27.7033 44.2567 27.9143C44.6087 29.3737 49.335 30.151 49.863 32.7543C49.918 33.022 50.0243 33.726 49.874 34.8003C49.577 36.8793 47.7253 37.6457 45.474 37.6457H45.4703ZM57.2917 37.598C54.9817 37.598 53.119 36.828 52.899 34.4813C52.8791 34.2092 52.8693 33.9365 52.8697 33.6637V24.64H56.0487V33.946C56.0487 34.1073 56.0487 34.287 56.078 34.4227C56.1403 34.7343 56.4153 35.332 57.2917 35.332C58.1643 35.332 58.432 34.7343 58.4943 34.4227C58.5145 34.2646 58.5243 34.1054 58.5237 33.946V24.64H61.7027V33.6637C61.7031 33.9377 61.6933 34.2117 61.6733 34.485C61.4533 36.8317 59.6053 37.598 57.2917 37.598ZM83.5303 37.4623C81.301 37.4623 79.321 36.652 79.112 34.3603C79.0844 34.0836 79.0673 33.806 79.0607 33.528V28.2407C79.0607 28.017 79.0937 27.6173 79.1193 27.4083C79.4017 25.058 81.301 24.3063 83.5303 24.3063C85.7597 24.3063 87.7103 25.0507 87.9413 27.4083C87.9817 27.8117 87.9707 28.2407 87.9707 28.2407V28.6587H84.8027V27.951C84.8027 27.951 84.8027 27.6577 84.766 27.4743C84.7073 27.1993 84.4653 26.5577 83.501 26.5577C82.588 26.5577 82.3203 27.1663 82.2543 27.4743C82.2211 27.6706 82.204 27.8693 82.203 28.0683V33.814C82.2024 33.9734 82.2122 34.1326 82.2323 34.2907C82.291 34.628 82.6137 35.2073 83.523 35.2073C84.4323 35.2073 84.744 34.628 84.8027 34.2907C84.8228 34.1326 84.8326 33.9734 84.832 33.814V31.9917H83.5413V30.1583H88V33.5317C88 33.7663 87.989 33.9423 87.9523 34.3603C87.7433 36.652 85.7597 37.4623 83.5303 37.4623ZM11.132 37.224L13.464 24.64H19.0593L21.3803 37.224H17.9997L16.3277 25.806L16.2543 25.8133L14.531 37.224H11.132ZM23.892 37.224L24.1633 24.64H29.2967L30.8403 34.265H30.9173L32.4647 24.64H37.5943L37.8693 37.224H34.727L34.6537 25.9197H34.5767L32.4757 37.224H29.2857L27.1847 25.9233H27.1187L27.0417 37.2277L23.892 37.224ZM65.208 37.092V24.64H69.8757L72.7723 34.5143H72.8383L72.666 24.64H75.7863V37.092H71.3093L68.1963 26.873H68.1303L68.3027 37.092H65.208Z" fill="white"/>
</g>
<defs>
<clipPath id="clip0_16_196">
<rect width="88" height="88" fill="white"/>
</clipPath>
</defs>
</svg>
