<svg width="14" height="14" viewBox="0 0 14 14" fill="none" xmlns="http://www.w3.org/2000/svg">
<path d="M1.66675 9.99999C1.66675 10.6188 1.91258 11.2123 2.35017 11.6499C2.78775 12.0875 3.38124 12.3333 4.00008 12.3333C4.61892 12.3333 5.21241 12.0875 5.65 11.6499C6.08758 11.2123 6.33341 10.6188 6.33341 9.99999C6.33341 9.38115 6.08758 8.78766 5.65 8.35007C5.21241 7.91249 4.61892 7.66666 4.00008 7.66666C3.38124 7.66666 2.78775 7.91249 2.35017 8.35007C1.91258 8.78766 1.66675 9.38115 1.66675 9.99999ZM8.33341 11C8.33341 11.5304 8.54413 12.0391 8.9192 12.4142C9.29427 12.7893 9.80298 13 10.3334 13C10.8638 13 11.3726 12.7893 11.7476 12.4142C12.1227 12.0391 12.3334 11.5304 12.3334 11C12.3334 10.4696 12.1227 9.96085 11.7476 9.58578C11.3726 9.2107 10.8638 8.99999 10.3334 8.99999C9.80298 8.99999 9.29427 9.2107 8.9192 9.58578C8.54413 9.96085 8.33341 10.4696 8.33341 11Z" stroke="#CECECE" stroke-width="2" stroke-linecap="round" stroke-linejoin="round"/>
<path d="M5.00006 7.66667C5.24406 6.33333 6.24406 5.08467 8.00006 3.93333M10.3334 9C9.44473 7.44467 8.77806 5.44467 9.66673 3" stroke="#CECECE" stroke-width="2" stroke-linecap="round" stroke-linejoin="round"/>
<path d="M2.33344 2.99999C4.77788 1.22221 7.22232 1.22221 9.66677 2.99999C7.22232 4.77777 4.77788 4.77777 2.33344 2.99999Z" stroke="#CECECE" stroke-width="2" stroke-linecap="round" stroke-linejoin="round"/>
</svg>
