<svg width="16" height="16" viewBox="0 0 16 16" fill="none" xmlns="http://www.w3.org/2000/svg">
<path d="M11.2866 11.4133L10.7533 10.5067L11.7266 7.59333L12.6666 7.27999L13.3333 7.77999V7.87333C13.3333 7.92 13.3533 7.96 13.3533 8C13.3533 9.31333 12.9133 10.4733 12.04 11.4733L11.2866 11.4133ZM6.49998 10L5.58665 7.31333L7.99998 5.62L10.4133 7.31333L9.49998 10H6.49998ZM7.99998 13.3533C7.41331 13.3533 6.85998 13.26 6.33331 13.0733L5.87331 12.0667L6.31331 11.3333H9.71998L10.1266 12.0667L9.66665 13.0733C9.13998 13.26 8.58665 13.3533 7.99998 13.3533ZM3.95998 11.4733C3.60665 11.06 3.29998 10.5067 3.03998 9.83333C2.77998 9.15333 2.64665 8.54 2.64665 8C2.64665 7.96 2.66665 7.92 2.66665 7.87333V7.77999L3.33331 7.27999L4.27331 7.59333L5.24665 10.5067L4.71331 11.4133L3.95998 11.4733ZM7.33331 3.52666V4.46L4.66665 6.30666L3.77331 6.02666L3.49331 5.11999C3.78665 4.66666 4.21998 4.21333 4.79331 3.77333C5.36665 3.33333 5.91331 3.04666 6.43331 2.89999L7.33331 3.52666ZM9.56665 2.89999C10.0866 3.04666 10.6333 3.33333 11.2066 3.77333C11.78 4.21333 12.2133 4.66666 12.5066 5.11999L12.2266 6.02666L11.3333 6.31333L8.66665 4.46666V3.52666L9.56665 2.89999ZM3.28665 3.28666C1.99998 4.59333 1.33331 6.16666 1.33331 8C1.33331 9.83333 1.99998 11.4067 3.28665 12.7133C4.57331 14.02 6.16665 14.6667 7.99998 14.6667C9.83331 14.6667 11.4066 14 12.7133 12.7133C14.02 11.4267 14.6666 9.83333 14.6666 8C14.6666 6.16666 14 4.59333 12.7133 3.28666C11.4266 1.97999 9.83331 1.33333 7.99998 1.33333C6.16665 1.33333 4.59331 1.99999 3.28665 3.28666Z" fill="#CECECE"/>
</svg>
