<svg width="16" height="16" viewBox="0 0 16 16" fill="none" xmlns="http://www.w3.org/2000/svg">
<g clip-path="url(#clip0_17_1477)">
<path d="M15.8613 1.43466C15.8351 1.4471 15.8126 1.46618 15.796 1.49C13.5396 4.31 11.284 7.13 9.02934 9.95C8.958 10.012 9.01267 10.142 9.10867 10.1267C10.7347 10.1287 12.36 10.1267 13.986 10.1273C14.0562 10.131 14.1262 10.1177 14.1903 10.0887C14.2543 10.0597 14.3104 10.0158 14.354 9.96066L15.9033 8.02533C15.9742 7.93183 16.0083 7.81563 15.9993 7.69866C15.998 5.64733 15.9993 3.59666 15.9973 1.54533C16.008 1.472 15.9307 1.40866 15.8613 1.43466ZM0.0513381 1.444C4.71866e-06 1.46933 0.00200472 1.532 0.000671387 1.58066C0.00156028 3.63044 0.0017825 5.68044 0.00133805 7.73066C-0.00305932 7.84306 0.0344835 7.95307 0.106671 8.03933L5.20001 14.406C5.28 14.5073 5.40534 14.5727 5.53667 14.5707C7.17334 14.5707 8.81001 14.5727 10.4467 14.5707C10.5413 14.584 10.5947 14.4547 10.524 14.394C7.10734 10.1173 3.684 5.844 0.266671 1.56666C0.213338 1.504 0.150671 1.38533 0.0520047 1.444H0.0513381Z" fill="#CECECE"/>
</g>
<defs>
<clipPath id="clip0_17_1477">
<rect width="16" height="16" fill="white"/>
</clipPath>
</defs>
</svg>
